<svg id="Layer_1" data-name="Layer 1" xmlns="http://www.w3.org/2000/svg" viewBox="0 0 956.97 1280"><path d="M462.33,1234.84c.7-126.6,2.35-258.07-37.15-379.57-11.32-2.46,8.13,67.67,7.56,83.85,7.55,75.31,32.58,156.74,19.93,230.23-27.8-118.28-50.53-244.41-81-364.46C350,697.65,341,588.15,333.87,479.13c.06-7.08-.95-7.66-7.91-6.94-55,3.56-110.26,2.19-165.35,2.23-22.63,1.66-65.83-15.06-42.46-42.2,1.92-2.34,1.61-3.91-1.52-4.49-34.09-8.38-55.5-41.2-72-69.9-7.8-17.14,10.86-29.39,11.84-45.89C64,288,30.4,294.08,35,259c3.93-6.59,24.65,5.38,12.44-6.46-14.31-13.78,8.68-20.92,6.63-34.59-5.11-21.31,20.2-27.41,36.08-21.25,73.93,21.51,147.8,58.55,226.75,42.59,17.75-32.18,2-85.72,8.08-124.77C325,91.23,327.77,68,332.19,45c61.37,14.93,244.4-32.85,247.92,23.5-12.53,215.67-74.49,203.75,136.83,200.8C739.19,274,949.36,264.2,917.13,293c-70.55.29-142.52-8.14-212.39-4.89,56.52,9.49,114,13.92,169.84,25.11,11.35,8.65-20.53,5.56-25.74,5.82-20.43.93-1.34,15.86-1.39,24.06-6.14,3.93-14.56-3.39-21.56-3.57-32.94-7.57-67-10.24-100.68-6.74,33.23,4.22,70.36,5.13,104.39,13.59,14.77,4.94,44.49,1.08,47.95,19.58-12.67,9.75-53.19-3.07-11.41,9.87C934.41,401.21,720,365.15,704,386.2c15.52,11.61,71.48,2.29,99.93,8.26,31.5,13.7-118.26,15.79-129,15.49-10.29-2.93-114.83-3.24-88.75,9.33,20,2.2,227.54-15.76,155.48,8.27-52.91,21.87-123.07,12.25-170.05,34.2-18.76,76.36-17.31,155.09-2.16,231.89-.95,13.17,25.64,118.36,3.93,95-51.07-278.21,8.27,117.62,20.44,207,9.76,79.4,7.78,159.44,6.13,239.27-43.14,1.2-7.07-89.47-17.31-123.65-7.92,40.4-11.41,82.75-18.94,123.65-133.77,16.21-44.65-49.33-82.09-174.34C472.83,1099.71,490.17,1224.52,462.33,1234.84Z"/></svg>